<mxfile host="app.diagrams.net" modified="2023-01-04T14:04:59.376Z" agent="5.0 (Windows NT 10.0; Win64; x64) AppleWebKit/537.36 (KHTML, like Gecko) Chrome/108.0.0.0 Safari/537.36" version="20.8.1" etag="1qS994XaVO0OYXiqu72b" type="github">
  <diagram id="_hit5dbg10cEkQHOyQ8z" name="Page-1">
    <mxGraphModel dx="989" dy="1649" grid="1" gridSize="10" guides="1" tooltips="1" connect="1" arrows="1" fold="1" page="1" pageScale="1" pageWidth="850" pageHeight="1100" math="0" shadow="0">
      <root>
        <mxCell id="0" />
        <mxCell id="1" parent="0" />
        <mxCell id="Qa-lKNvNfZP7GKMm4PIT-2" value="Master" style="rounded=0;whiteSpace=wrap;html=1;" vertex="1" parent="1">
          <mxGeometry x="180" y="390" width="80" height="120" as="geometry" />
        </mxCell>
        <mxCell id="Qa-lKNvNfZP7GKMm4PIT-3" value="Slave 1" style="rounded=0;whiteSpace=wrap;html=1;" vertex="1" parent="1">
          <mxGeometry x="280" y="390" width="80" height="120" as="geometry" />
        </mxCell>
        <mxCell id="Qa-lKNvNfZP7GKMm4PIT-5" value="Slave 2" style="rounded=0;whiteSpace=wrap;html=1;fillColor=#dae8fc;strokeColor=#6c8ebf;" vertex="1" parent="1">
          <mxGeometry x="380" y="390" width="80" height="120" as="geometry" />
        </mxCell>
        <mxCell id="Qa-lKNvNfZP7GKMm4PIT-6" value="Slave 3" style="rounded=0;whiteSpace=wrap;html=1;fillColor=#dae8fc;strokeColor=#6c8ebf;" vertex="1" parent="1">
          <mxGeometry x="480" y="390" width="80" height="120" as="geometry" />
        </mxCell>
        <mxCell id="Qa-lKNvNfZP7GKMm4PIT-7" value="Slave 4" style="rounded=0;whiteSpace=wrap;html=1;fillColor=#dae8fc;strokeColor=#6c8ebf;" vertex="1" parent="1">
          <mxGeometry x="580" y="390" width="80" height="120" as="geometry" />
        </mxCell>
        <mxCell id="Qa-lKNvNfZP7GKMm4PIT-8" value="&lt;font style=&quot;font-size: 19px;&quot;&gt;YalnÄ±zca Production Pod &#39;lar&lt;/font&gt;" style="text;html=1;align=center;verticalAlign=middle;resizable=0;points=[];autosize=1;strokeColor=#6c8ebf;fillColor=#dae8fc;" vertex="1" parent="1">
          <mxGeometry x="390" y="530" width="260" height="40" as="geometry" />
        </mxCell>
        <mxCell id="Qa-lKNvNfZP7GKMm4PIT-10" value="&lt;font style=&quot;font-size: 12px;&quot;&gt;Mysql - Test&lt;/font&gt;" style="rounded=0;whiteSpace=wrap;html=1;fontSize=19;" vertex="1" parent="1">
          <mxGeometry x="180" y="290" width="80" height="20" as="geometry" />
        </mxCell>
        <mxCell id="Qa-lKNvNfZP7GKMm4PIT-12" value="&lt;font style=&quot;font-size: 12px;&quot;&gt;App - Prod&lt;/font&gt;" style="rounded=0;whiteSpace=wrap;html=1;fontSize=19;" vertex="1" parent="1">
          <mxGeometry x="390" y="190" width="80" height="20" as="geometry" />
        </mxCell>
        <mxCell id="Qa-lKNvNfZP7GKMm4PIT-14" value="&lt;font style=&quot;font-size: 12px;&quot;&gt;App - Prod&lt;/font&gt;" style="rounded=0;whiteSpace=wrap;html=1;fontSize=19;" vertex="1" parent="1">
          <mxGeometry x="385" y="200" width="80" height="20" as="geometry" />
        </mxCell>
        <mxCell id="Qa-lKNvNfZP7GKMm4PIT-15" value="&lt;font style=&quot;font-size: 12px;&quot;&gt;App - Prod&lt;/font&gt;" style="rounded=0;whiteSpace=wrap;html=1;fontSize=19;" vertex="1" parent="1">
          <mxGeometry x="380" y="210" width="80" height="20" as="geometry" />
        </mxCell>
        <mxCell id="Qa-lKNvNfZP7GKMm4PIT-16" value="&lt;font style=&quot;font-size: 12px;&quot;&gt;Mysql - Prod&lt;/font&gt;" style="rounded=0;whiteSpace=wrap;html=1;fontSize=19;" vertex="1" parent="1">
          <mxGeometry x="380" y="300" width="80" height="20" as="geometry" />
        </mxCell>
        <mxCell id="Qa-lKNvNfZP7GKMm4PIT-17" value="&lt;font style=&quot;font-size: 12px;&quot;&gt;App - Test&lt;/font&gt;" style="rounded=0;whiteSpace=wrap;html=1;fontSize=19;" vertex="1" parent="1">
          <mxGeometry x="180" y="260" width="80" height="20" as="geometry" />
        </mxCell>
        <mxCell id="Qa-lKNvNfZP7GKMm4PIT-19" value="Scale" style="shape=flexArrow;endArrow=classic;startArrow=classic;html=1;rounded=0;fontSize=12;startWidth=9.655172413793103;startSize=7.827586206896552;endWidth=9.655172413793103;endSize=5.620689655172415;fillColor=#d5e8d4;strokeColor=#82b366;" edge="1" parent="1">
          <mxGeometry width="100" height="100" relative="1" as="geometry">
            <mxPoint x="470" y="250" as="sourcePoint" />
            <mxPoint x="370" y="250" as="targetPoint" />
          </mxGeometry>
        </mxCell>
        <mxCell id="Qa-lKNvNfZP7GKMm4PIT-20" value="" style="rounded=0;whiteSpace=wrap;html=1;fontSize=12;fillColor=#fff2cc;strokeColor=#d6b656;" vertex="1" parent="1">
          <mxGeometry x="180" y="270" width="10" height="10" as="geometry" />
        </mxCell>
        <mxCell id="Qa-lKNvNfZP7GKMm4PIT-21" value="" style="rounded=0;whiteSpace=wrap;html=1;fontSize=12;fillColor=#fff2cc;strokeColor=#d6b656;" vertex="1" parent="1">
          <mxGeometry x="180" y="300" width="10" height="10" as="geometry" />
        </mxCell>
        <mxCell id="Qa-lKNvNfZP7GKMm4PIT-42" style="edgeStyle=orthogonalEdgeStyle;rounded=0;orthogonalLoop=1;jettySize=auto;html=1;exitX=1;exitY=0.5;exitDx=0;exitDy=0;entryX=-0.013;entryY=0.551;entryDx=0;entryDy=0;entryPerimeter=0;fontSize=12;" edge="1" parent="1" source="Qa-lKNvNfZP7GKMm4PIT-26" target="Qa-lKNvNfZP7GKMm4PIT-41">
          <mxGeometry relative="1" as="geometry" />
        </mxCell>
        <mxCell id="Qa-lKNvNfZP7GKMm4PIT-26" value="" style="rounded=0;whiteSpace=wrap;html=1;fontSize=12;fillColor=#d5e8d4;strokeColor=#82b366;" vertex="1" parent="1">
          <mxGeometry x="450" y="210" width="10" height="10" as="geometry" />
        </mxCell>
        <mxCell id="Qa-lKNvNfZP7GKMm4PIT-27" value="Service Mesh&amp;nbsp; &amp;nbsp;/&amp;nbsp; &amp;nbsp;Monitoring&amp;nbsp; /&amp;nbsp; Logs" style="rounded=0;whiteSpace=wrap;html=1;fontSize=12;fillColor=#fff2cc;strokeColor=#d6b656;" vertex="1" parent="1">
          <mxGeometry x="180" y="360" width="480" height="20" as="geometry" />
        </mxCell>
        <mxCell id="Qa-lKNvNfZP7GKMm4PIT-28" value="" style="rounded=0;whiteSpace=wrap;html=1;fontSize=12;fillColor=#fff2cc;strokeColor=#d6b656;" vertex="1" parent="1">
          <mxGeometry x="380" y="220" width="10" height="10" as="geometry" />
        </mxCell>
        <mxCell id="Qa-lKNvNfZP7GKMm4PIT-29" value="" style="rounded=0;whiteSpace=wrap;html=1;fontSize=12;fillColor=#fff2cc;strokeColor=#d6b656;" vertex="1" parent="1">
          <mxGeometry x="380" y="310" width="10" height="10" as="geometry" />
        </mxCell>
        <mxCell id="Qa-lKNvNfZP7GKMm4PIT-32" value="Ingress Controller (Load Balancer/Router)" style="rounded=0;whiteSpace=wrap;html=1;fontSize=12;fillColor=#e1d5e7;strokeColor=#9673a6;" vertex="1" parent="1">
          <mxGeometry x="185" y="40" width="480" height="20" as="geometry" />
        </mxCell>
        <mxCell id="Qa-lKNvNfZP7GKMm4PIT-33" value="" style="shape=flexArrow;endArrow=classic;startArrow=classic;html=1;rounded=0;fontSize=12;entryX=0.5;entryY=1;entryDx=0;entryDy=0;startWidth=9.655172413793103;startSize=7.827586206896552;endWidth=9.655172413793103;endSize=5.620689655172415;fillColor=#e1d5e7;strokeColor=#9673a6;" edge="1" parent="1">
          <mxGeometry width="100" height="100" relative="1" as="geometry">
            <mxPoint x="450" y="30" as="sourcePoint" />
            <mxPoint x="450" y="-40" as="targetPoint" />
          </mxGeometry>
        </mxCell>
        <mxCell id="Qa-lKNvNfZP7GKMm4PIT-34" value="" style="shape=flexArrow;endArrow=classic;startArrow=classic;html=1;rounded=0;fontSize=12;entryX=0.5;entryY=1;entryDx=0;entryDy=0;startWidth=9.655172413793103;startSize=7.827586206896552;endWidth=9.655172413793103;endSize=5.620689655172415;fillColor=#e1d5e7;strokeColor=#9673a6;" edge="1" parent="1">
          <mxGeometry width="100" height="100" relative="1" as="geometry">
            <mxPoint x="410" y="30" as="sourcePoint" />
            <mxPoint x="410" y="-40" as="targetPoint" />
          </mxGeometry>
        </mxCell>
        <mxCell id="Qa-lKNvNfZP7GKMm4PIT-36" value="sub1.domain1.com" style="text;html=1;align=center;verticalAlign=middle;resizable=0;points=[];autosize=1;strokeColor=none;fillColor=none;fontSize=12;" vertex="1" parent="1">
          <mxGeometry x="310" y="-75" width="120" height="30" as="geometry" />
        </mxCell>
        <mxCell id="Qa-lKNvNfZP7GKMm4PIT-37" value="sub1.domain2.com" style="text;html=1;align=center;verticalAlign=middle;resizable=0;points=[];autosize=1;strokeColor=none;fillColor=none;fontSize=12;" vertex="1" parent="1">
          <mxGeometry x="460" y="-121" width="120" height="30" as="geometry" />
        </mxCell>
        <mxCell id="Qa-lKNvNfZP7GKMm4PIT-38" value="sub2.domain2.com" style="text;html=1;align=center;verticalAlign=middle;resizable=0;points=[];autosize=1;strokeColor=none;fillColor=none;fontSize=12;" vertex="1" parent="1">
          <mxGeometry x="460" y="-90" width="120" height="30" as="geometry" />
        </mxCell>
        <mxCell id="Qa-lKNvNfZP7GKMm4PIT-39" value="sub2.domain2.com/path" style="text;html=1;align=center;verticalAlign=middle;resizable=0;points=[];autosize=1;strokeColor=none;fillColor=none;fontSize=12;" vertex="1" parent="1">
          <mxGeometry x="460" y="-70" width="150" height="30" as="geometry" />
        </mxCell>
        <mxCell id="Qa-lKNvNfZP7GKMm4PIT-41" value="Healtcheck" style="text;html=1;align=center;verticalAlign=middle;resizable=0;points=[];autosize=1;strokeColor=none;fillColor=none;fontSize=12;" vertex="1" parent="1">
          <mxGeometry x="760" y="260" width="80" height="30" as="geometry" />
        </mxCell>
        <mxCell id="Qa-lKNvNfZP7GKMm4PIT-43" value="" style="rounded=0;whiteSpace=wrap;html=1;fontSize=12;fillColor=#d5e8d4;strokeColor=#82b366;" vertex="1" parent="1">
          <mxGeometry x="449" y="301" width="10" height="10" as="geometry" />
        </mxCell>
        <mxCell id="Qa-lKNvNfZP7GKMm4PIT-44" value="" style="endArrow=none;dashed=1;html=1;strokeWidth=1;rounded=0;fontSize=12;dashPattern=1 4;" edge="1" parent="1">
          <mxGeometry width="50" height="50" relative="1" as="geometry">
            <mxPoint x="270" y="520" as="sourcePoint" />
            <mxPoint x="270" y="70" as="targetPoint" />
          </mxGeometry>
        </mxCell>
        <mxCell id="Qa-lKNvNfZP7GKMm4PIT-45" value="" style="endArrow=none;dashed=1;html=1;dashPattern=1 3;strokeWidth=1;rounded=0;fontSize=12;" edge="1" parent="1">
          <mxGeometry width="50" height="50" relative="1" as="geometry">
            <mxPoint x="370" y="520" as="sourcePoint" />
            <mxPoint x="369.65999999999997" y="69.99999999999977" as="targetPoint" />
          </mxGeometry>
        </mxCell>
        <mxCell id="Qa-lKNvNfZP7GKMm4PIT-46" value="" style="endArrow=none;dashed=1;html=1;dashPattern=1 3;strokeWidth=1;rounded=0;fontSize=12;" edge="1" parent="1">
          <mxGeometry width="50" height="50" relative="1" as="geometry">
            <mxPoint x="470" y="520" as="sourcePoint" />
            <mxPoint x="470" y="69.99999999999977" as="targetPoint" />
          </mxGeometry>
        </mxCell>
        <mxCell id="Qa-lKNvNfZP7GKMm4PIT-47" value="" style="endArrow=none;dashed=1;html=1;dashPattern=1 3;strokeWidth=1;rounded=0;fontSize=12;" edge="1" parent="1">
          <mxGeometry width="50" height="50" relative="1" as="geometry">
            <mxPoint x="570" y="520" as="sourcePoint" />
            <mxPoint x="570" y="69.99999999999977" as="targetPoint" />
          </mxGeometry>
        </mxCell>
        <mxCell id="Qa-lKNvNfZP7GKMm4PIT-50" value="" style="rounded=0;whiteSpace=wrap;html=1;fontSize=12;fillColor=#d5e8d4;strokeColor=#82b366;" vertex="1" parent="1">
          <mxGeometry x="250" y="260" width="10" height="10" as="geometry" />
        </mxCell>
        <mxCell id="Qa-lKNvNfZP7GKMm4PIT-51" value="" style="rounded=0;whiteSpace=wrap;html=1;fontSize=12;fillColor=#d5e8d4;strokeColor=#82b366;" vertex="1" parent="1">
          <mxGeometry x="250" y="290" width="10" height="10" as="geometry" />
        </mxCell>
      </root>
    </mxGraphModel>
  </diagram>
</mxfile>
